# Blender 3.1.0
# www.blender.org
o Plane
v -13.004210 0.000000 10.944005
v 13.004210 0.000000 10.944005
v -13.004210 0.000000 -10.944005
v 13.004210 0.000000 -10.944005
v -2.600000 0.000000 3.100000
v 2.600000 0.000000 3.100000
v 2.600000 0.000000 -3.100000
v -2.600000 0.000000 -3.100000
vn -0.0000 1.0000 -0.0000
vt 0.000000 0.000000
vt 1.000000 0.000000
vt 0.000000 1.000000
vt 1.000000 1.000000
vt 0.400032 0.358370
vt 0.599968 0.358370
vt 0.599968 0.641630
vt 0.400032 0.641630
s 0
f 4/4/1 8/8/1 7/7/1
f 1/1/1 2/2/1 5/5/1
f 4/4/1 3/3/1 8/8/1
f 8/8/1 3/3/1 1/1/1
f 2/2/1 4/4/1 7/7/1
f 2/2/1 7/7/1 6/6/1
f 5/5/1 8/8/1 1/1/1
f 2/2/1 6/6/1 5/5/1
