# Blender 3.1.0
# www.blender.org
o Plane
v -12.000000 0.000000 12.000000
v 12.000000 0.000000 12.000000
v -12.000000 0.000000 -12.000000
v 12.000000 0.000000 -12.000000
v 4.000000 0.000000 0.750000
v 4.000000 0.000000 -0.750000
v -4.000000 0.000000 0.750000
v -4.000000 0.000000 -0.750000
vn -0.0000 1.0000 -0.0000
vt 0.000000 0.000000
vt 1.000000 0.000000
vt 0.000000 1.000000
vt 1.000000 1.000000
vt 0.666667 0.468750
vt 0.666667 0.531250
vt 0.333333 0.468750
vt 0.333333 0.531250
s 0
f 1/1/1 8/8/1 3/3/1
f 2/2/1 4/4/1 5/5/1
f 1/1/1 7/7/1 8/8/1
f 5/5/1 7/7/1 1/1/1
f 4/4/1 3/3/1 8/8/1
f 4/4/1 8/8/1 6/6/1
f 5/5/1 1/1/1 2/2/1
f 4/4/1 6/6/1 5/5/1
